HIERARCHY
ROOT Root
{
  OFFSET 0.0 0.0 0.0
  CHANNELS 6 Xposition Yposition Zposition Zrotation Yrotation Xrotation
  JOINT Hips
  {
    OFFSET 0.0 100.0 0.0
    CHANNELS 6 Xposition Yposition Zposition Zrotation Yrotation Xrotation
    JOINT Spine1
    {
      OFFSET 5.003913 -0.037094 -0.013727
      CHANNELS 3 Zrotation Yrotation Xrotation
      JOINT Spine2
      {
        OFFSET 7.125363 -1e-06 0.0
        CHANNELS 3 Zrotation Yrotation Xrotation
        JOINT Chest
        {
          OFFSET 7.594027 1e-06 0.0
          CHANNELS 3 Zrotation Yrotation Xrotation
          JOINT Neck1
          {
            OFFSET 26.313086 -0.460272 -0.181672
            CHANNELS 3 Zrotation Yrotation Xrotation
            JOINT Neck2
            {
              OFFSET 8.045911 0.0 0.0
              CHANNELS 3 Zrotation Yrotation Xrotation
              JOINT Head
              {
                OFFSET 6.432774 0.0 0.0
                CHANNELS 3 Zrotation Yrotation Xrotation
                JOINT HeadEnd
                {
                  OFFSET 16.169773 0.06451 0.00362
                  CHANNELS 3 Zrotation Yrotation Xrotation
                }
                JOINT Jaw
                {
                  OFFSET 0.108741 3.12938 0.002639
                  CHANNELS 3 Zrotation Yrotation Xrotation
                }
                JOINT LeftEye
                {
                  OFFSET 4.45173 8.166359 3.206392
                  CHANNELS 3 Zrotation Yrotation Xrotation
                }
                JOINT RightEye
                {
                  OFFSET 4.436895 8.135758 -3.222429
                  CHANNELS 3 Zrotation Yrotation Xrotation
                }
              }
            }
          }
          JOINT LeftShoulder
          {
            OFFSET 23.218927 5.195579 1.621656
            CHANNELS 3 Zrotation Yrotation Xrotation
            JOINT LeftArm
            {
              OFFSET 15.902118 2e-06 -2e-06
              CHANNELS 3 Zrotation Yrotation Xrotation
              JOINT LeftForeArm
              {
                OFFSET 28.739307 0.0 -1e-06
                CHANNELS 3 Zrotation Yrotation Xrotation
                JOINT LeftHand
                {
                  OFFSET 27.093981 -4e-06 0.0
                  CHANNELS 3 Zrotation Yrotation Xrotation
                  JOINT LeftHandThumb1
                  {
                    OFFSET 2.276781 3.380274 0.83384
                    CHANNELS 3 Zrotation Yrotation Xrotation
                    JOINT LeftHandThumb2
                    {
                      OFFSET 4.705309 -1e-06 -1e-06
                      CHANNELS 3 Zrotation Yrotation Xrotation
                      JOINT LeftHandThumb3
                      {
                        OFFSET 2.798515 0.0 3e-06
                        CHANNELS 3 Zrotation Yrotation Xrotation
                        JOINT LeftHandThumbEnd
                        {
                          OFFSET 3.180793 4e-06 -4e-06
                          CHANNELS 3 Zrotation Yrotation Xrotation
                        }
                      }
                    }
                  }
                  JOINT LeftHandIndex1
                  {
                    OFFSET 3.247786 2.352677 0.137192
                    CHANNELS 3 Zrotation Yrotation Xrotation
                    JOINT LeftHandIndex2
                    {
                      OFFSET 6.367095 1e-06 0.0
                      CHANNELS 3 Zrotation Yrotation Xrotation
                      JOINT LeftHandIndex3
                      {
                        OFFSET 3.662364 0.0 0.0
                        CHANNELS 3 Zrotation Yrotation Xrotation
                        JOINT LeftHandIndex4
                        {
                          OFFSET 2.329242 4e-06 -4e-06
                          CHANNELS 3 Zrotation Yrotation Xrotation
                          JOINT LeftHandIndexEnd
                          {
                            OFFSET 2.767823 1e-06 0.0
                            CHANNELS 3 Zrotation Yrotation Xrotation
                          }
                        }
                      }
                    }
                  }
                  JOINT LeftHandMiddle1
                  {
                    OFFSET 3.163612 0.945023 -0.406112
                    CHANNELS 3 Zrotation Yrotation Xrotation
                    JOINT LeftHandMiddle2
                    {
                      OFFSET 6.276789 3e-06 0.0
                      CHANNELS 3 Zrotation Yrotation Xrotation
                      JOINT LeftHandMiddle3
                      {
                        OFFSET 4.35652 -1e-06 4e-06
                        CHANNELS 3 Zrotation Yrotation Xrotation
                        JOINT LeftHandMiddle4
                        {
                          OFFSET 2.996877 0.0 8e-06
                          CHANNELS 3 Zrotation Yrotation Xrotation
                          JOINT LeftHandMiddleEnd
                          {
                            OFFSET 2.323256 3e-06 -4e-06
                            CHANNELS 3 Zrotation Yrotation Xrotation
                          }
                        }
                      }
                    }
                  }
                  JOINT LeftHandRing1
                  {
                    OFFSET 2.882606 -0.309162 0.107445
                    CHANNELS 3 Zrotation Yrotation Xrotation
                    JOINT LeftHandRing2
                    {
                      OFFSET 6.033198 0.0 4e-06
                      CHANNELS 3 Zrotation Yrotation Xrotation
                      JOINT LeftHandRing3
                      {
                        OFFSET 4.350578 3e-06 0.0
                        CHANNELS 3 Zrotation Yrotation Xrotation
                        JOINT LeftHandRing4
                        {
                          OFFSET 2.651321 2e-06 -7e-06
                          CHANNELS 3 Zrotation Yrotation Xrotation
                          JOINT LeftHandRingEnd
                          {
                            OFFSET 1.937663 1e-06 -4e-06
                            CHANNELS 3 Zrotation Yrotation Xrotation
                          }
                        }
                      }
                    }
                  }
                  JOINT LeftHandPinky1
                  {
                    OFFSET 2.865315 -1.525436 0.575687
                    CHANNELS 3 Zrotation Yrotation Xrotation
                    JOINT LeftHandPinky2
                    {
                      OFFSET 5.54936 1e-06 -8e-06
                      CHANNELS 3 Zrotation Yrotation Xrotation
                      JOINT LeftHandPinky3
                      {
                        OFFSET 3.070974 0.0 -4e-06
                        CHANNELS 3 Zrotation Yrotation Xrotation
                        JOINT LeftHandPinky4
                        {
                          OFFSET 1.549672 1e-06 0.0
                          CHANNELS 3 Zrotation Yrotation Xrotation
                          JOINT LeftHandPinkyEnd
                          {
                            OFFSET 1.952123 0.0 0.0
                            CHANNELS 3 Zrotation Yrotation Xrotation
                          }
                        }
                      }
                    }
                  }
                }
              }
            }
          }
          JOINT RightShoulder
          {
            OFFSET 23.161716 5.296122 -1.380114
            CHANNELS 3 Zrotation Yrotation Xrotation
            JOINT RightArm
            {
              OFFSET -16.027195 -2e-06 1.1e-05
              CHANNELS 3 Zrotation Yrotation Xrotation
              JOINT RightForeArm
              {
                OFFSET -28.736639 4e-06 2e-06
                CHANNELS 3 Zrotation Yrotation Xrotation
                JOINT RightHand
                {
                  OFFSET -27.133619 6e-06 0.0
                  CHANNELS 3 Zrotation Yrotation Xrotation
                  JOINT RightHandThumb1
                  {
                    OFFSET -2.274328 -3.351035 -0.83067
                    CHANNELS 3 Zrotation Yrotation Xrotation
                    JOINT RightHandThumb2
                    {
                      OFFSET -4.703594 -3e-06 2e-06
                      CHANNELS 3 Zrotation Yrotation Xrotation
                      JOINT RightHandThumb3
                      {
                        OFFSET -2.794935 -4e-06 -3e-06
                        CHANNELS 3 Zrotation Yrotation Xrotation
                        JOINT RightHandThumbEnd
                        {
                          OFFSET -3.183852 4e-06 1e-06
                          CHANNELS 3 Zrotation Yrotation Xrotation
                        }
                      }
                    }
                  }
                  JOINT RightHandIndex1
                  {
                    OFFSET -3.253496 -2.33755 -0.127667
                    CHANNELS 3 Zrotation Yrotation Xrotation
                    JOINT RightHandIndex2
                    {
                      OFFSET -6.344434 0.0 0.0
                      CHANNELS 3 Zrotation Yrotation Xrotation
                      JOINT RightHandIndex3
                      {
                        OFFSET -3.654871 0.0 -8e-06
                        CHANNELS 3 Zrotation Yrotation Xrotation
                        JOINT RightHandIndex4
                        {
                          OFFSET -2.327586 -1e-06 0.0
                          CHANNELS 3 Zrotation Yrotation Xrotation
                          JOINT RightHandIndexEnd
                          {
                            OFFSET -2.770001 3e-06 8e-06
                            CHANNELS 3 Zrotation Yrotation Xrotation
                          }
                        }
                      }
                    }
                  }
                  JOINT RightHandMiddle1
                  {
                    OFFSET -3.168223 -0.944764 0.411762
                    CHANNELS 3 Zrotation Yrotation Xrotation
                    JOINT RightHandMiddle2
                    {
                      OFFSET -6.266691 -1e-06 -4e-06
                      CHANNELS 3 Zrotation Yrotation Xrotation
                      JOINT RightHandMiddle3
                      {
                        OFFSET -4.348901 0.0 0.0
                        CHANNELS 3 Zrotation Yrotation Xrotation
                        JOINT RightHandMiddle4
                        {
                          OFFSET -3.00024 2e-06 -4e-06
                          CHANNELS 3 Zrotation Yrotation Xrotation
                          JOINT RightHandMiddleEnd
                          {
                            OFFSET -2.321477 -4e-06 -4e-06
                            CHANNELS 3 Zrotation Yrotation Xrotation
                          }
                        }
                      }
                    }
                  }
                  JOINT RightHandRing1
                  {
                    OFFSET -2.885654 0.293261 -0.119232
                    CHANNELS 3 Zrotation Yrotation Xrotation
                    JOINT RightHandRing2
                    {
                      OFFSET -6.032835 -1e-06 -4e-06
                      CHANNELS 3 Zrotation Yrotation Xrotation
                      JOINT RightHandRing3
                      {
                        OFFSET -4.33881 0.0 -4e-06
                        CHANNELS 3 Zrotation Yrotation Xrotation
                        JOINT RightHandRing4
                        {
                          OFFSET -2.654903 -4e-06 -4e-06
                          CHANNELS 3 Zrotation Yrotation Xrotation
                          JOINT RightHandRingEnd
                          {
                            OFFSET -1.935122 0.0 4e-06
                            CHANNELS 3 Zrotation Yrotation Xrotation
                          }
                        }
                      }
                    }
                  }
                  JOINT RightHandPinky1
                  {
                    OFFSET -2.866241 1.503904 -0.60527
                    CHANNELS 3 Zrotation Yrotation Xrotation
                    JOINT RightHandPinky2
                    {
                      OFFSET -5.553177 -2e-06 0.0
                      CHANNELS 3 Zrotation Yrotation Xrotation
                      JOINT RightHandPinky3
                      {
                        OFFSET -3.062664 -1e-06 -4e-06
                        CHANNELS 3 Zrotation Yrotation Xrotation
                        JOINT RightHandPinky4
                        {
                          OFFSET -1.546529 2e-06 4e-06
                          CHANNELS 3 Zrotation Yrotation Xrotation
                          JOINT RightHandPinkyEnd
                          {
                            OFFSET -1.952341 0.0 -4e-06
                            CHANNELS 3 Zrotation Yrotation Xrotation
                          }
                        }
                      }
                    }
                  }
                }
              }
            }
          }
        }
      }
    }
    JOINT LeftLeg
    {
      OFFSET -8.443107 2.567604 10.043214
      CHANNELS 3 Zrotation Yrotation Xrotation
      JOINT LeftShin
      {
        OFFSET 43.229198 1e-06 -1e-06
        CHANNELS 3 Zrotation Yrotation Xrotation
        JOINT LeftFoot
        {
          OFFSET 42.298611 1e-06 1e-06
          CHANNELS 3 Zrotation Yrotation Xrotation
          JOINT LeftToeBase
          {
            OFFSET 14.165858 1e-06 0.0
            CHANNELS 3 Zrotation Yrotation Xrotation
            JOINT LeftToeEnd
            {
              OFFSET 6.7141 -0.234461 0.0
              CHANNELS 3 Zrotation Yrotation Xrotation
            }
          }
        }
      }
    }
    JOINT RightLeg
    {
      OFFSET -8.303923 2.592729 -10.047278
      CHANNELS 3 Zrotation Yrotation Xrotation
      JOINT RightShin
      {
        OFFSET -43.369682 0.0 1e-06
        CHANNELS 3 Zrotation Yrotation Xrotation
        JOINT RightFoot
        {
          OFFSET -42.260784 4e-06 2e-06
          CHANNELS 3 Zrotation Yrotation Xrotation
          JOINT RightToeBase
          {
            OFFSET -14.222245 -2e-06 -1e-06
            CHANNELS 3 Zrotation Yrotation Xrotation
            JOINT RightToeEnd
            {
              OFFSET -6.660062 0.232574 -2e-06
              CHANNELS 3 Zrotation Yrotation Xrotation
            }
          }
        }
      }
    }
  }
}
MOTION
Frames: 4
Frame Time: 0.03333333333333333
0.0 0.0 0.0 0.0 -0.0 0.0 -2.526958 90.895248 203.198624 91.836967 -7.452328 91.77639 0.142471 -0.848281 -0.632335 -10.368369 -0.412055 -1.094773 12.231631 0.884052 -2.832828 16.303078 -1.123745 2.669657 -2.444933 -0.888164 -1.279142 -42.812321 -2.096274 -1.049668 6e-06 -0.0 0.0 0.060334 -0.006193 -0.036472 0.17809 -0.030005 -0.05881 0.209488 0.013541 -0.012004 -104.724915 -79.78833 116.981224 48.926182 -43.688866 8.918397 32.384712 0.528862 0.210512 0.751586 -14.735076 26.614157 17.636621 -26.322733 52.411194 -19.466658 -14.395598 29.410389 -1e-06 -8.774821 -2e-06 16.300146 -17.777117 5.933451 -0.609777 -1.795653 -3.889328 -4.807087 -11.046809 -2.93785 5e-06 -20.976015 0.0 -5.019969 -25.033556 -4.031879 6e-06 -0.0 0.0 -10.634531 -5.68697 -3.565587 10.573272 -17.922947 -3.1139 3e-06 -13.821205 1e-06 -0.501778 -31.181498 -4.027013 -11.68126 -60.348499 7.725366 -13.982712 -7.150196 -2.875042 13.772727 -8.401492 -3.218242 0.347734 -34.211555 0.771657 -0.963029 -17.73337 2.621021 0.0 0.0 0.0 -17.346413 -20.095213 -4.201782 21.757555 -1.638374 3.866427 2e-06 -6.338823 1e-06 -1.697589 -22.591745 -6.194005 -0.0 -2e-06 -2e-06 40.348145 -75.031975 154.887802 27.778687 -49.893238 0.587588 26.145555 -0.190524 -0.087973 -3.046495 -0.423521 31.290493 22.182116 -20.375898 49.933319 -16.701813 -16.74353 28.47653 -2e-06 -12.6906 -2e-06 16.824495 -17.621321 2.107755 -0.105919 -1.513857 -4.275877 -5.03904 -5.612871 -2.953557 4e-06 -11.020523 -1e-06 -6.111297 -15.89533 -3.840469 -1e-06 -1e-06 -0.0 -10.283369 -5.680287 -4.341836 11.028294 -11.302404 -2.372634 -1.384268 -14.238579 -6.32012 -0.625441 -26.924185 -3.827597 -4.038106 -49.839668 -4.35235 -13.708525 -7.363475 -3.720938 18.141148 -14.052739 -3.242673 6e-06 -18.787266 -2e-06 -0.429712 -8.456043 2.555507 -2e-06 -1e-06 1e-06 -15.923534 -20.094482 -5.473586 30.419207 -7.190824 1.735929 2e-06 -8.162925 -1e-06 -1.861902 -22.861467 -6.167945 1e-06 -2e-06 -3e-06 169.813156 2.149762 -1.027415 46.422115 -0.338157 0.230242 -105.044754 5.12774 1.660896 -12.403828 1.673814 2.075712 -0.999999 0.0 0.0 -48.669155 -9.584658 -17.171591 38.732384 0.205666 -0.073979 -72.878784 -1.986596 -3.617951 -11.500976 0.718242 1.583758 -1.000002 1e-06 -0.0 
0.0 0.0 0.0 0.0 -0.0 0.0 -3.041203 90.91819 205.04567 91.479904 -8.144669 92.467972 -0.004482 -0.547628 -0.646463 -10.435587 -0.384979 -1.207398 12.247489 1.172638 -2.944911 15.865869 -1.124522 2.696181 -2.484335 -0.933433 -1.261777 -43.265415 -2.204822 -1.098338 6e-06 0.0 -0.0 0.048267 -0.007727 -0.05388 0.2065 -0.028977 -0.069929 0.229944 0.010813 -0.034187 -105.325401 -79.818237 117.591217 48.881718 -43.964062 8.786854 32.474659 0.534756 0.224759 0.702572 -14.565418 26.612341 17.636629 -26.322731 52.41119 -19.46666 -14.395596 29.410389 0.0 -8.774821 -2e-06 16.279297 -17.729235 5.888607 -0.609777 -1.795652 -3.889327 -4.807088 -11.046808 -2.93785 3e-06 -20.976011 0.0 -5.01997 -25.033546 -4.03188 6e-06 -3e-06 -0.0 -10.634533 -5.68697 -3.565588 10.573271 -17.922947 -3.113899 2e-06 -13.821205 1e-06 -0.50178 -31.181498 -4.027015 -11.596022 -60.30534 7.64252 -13.982712 -7.150198 -2.875042 13.772727 -8.401489 -3.21824 0.347731 -34.211544 0.771656 -0.96303 -17.733366 2.621019 0.0 -1e-06 0.0 -17.346416 -20.095213 -4.201782 21.757555 -1.638373 3.866428 0.0 -6.338824 1e-06 -1.69759 -22.591747 -6.194006 0.0 -2e-06 -2e-06 40.443897 -74.848984 154.756287 27.566183 -49.886059 0.918598 26.233644 -0.178199 -0.125235 -2.889672 -0.583444 31.062096 22.182117 -20.375898 49.933327 -16.701815 -16.74353 28.476534 -4e-06 -12.690601 -2e-06 16.715157 -17.591537 2.092394 -0.105919 -1.513857 -4.275882 -5.039041 -5.612872 -2.953555 4e-06 -11.020527 -2e-06 -6.111297 -15.895336 -3.840472 -1e-06 1e-06 -0.0 -10.283372 -5.680288 -4.341839 11.028296 -11.302406 -2.372635 -1.384268 -14.238582 -6.320123 -0.625437 -26.924191 -3.827598 -3.898641 -49.751244 -4.427532 -13.708526 -7.363476 -3.72094 18.141153 -14.052742 -3.242676 7e-06 -18.787271 -2e-06 -0.429711 -8.456045 2.555507 0.0 2e-06 -1e-06 -15.923536 -20.094486 -5.473588 30.419214 -7.190829 1.735925 4e-06 -8.162925 -1e-06 -1.861901 -22.861471 -6.167941 2e-06 -3e-06 -1e-06 170.55069 1.115165 -1.198817 46.006382 -0.389037 0.312773 -104.019714 6.044046 1.43865 -14.107946 1.711827 2.051606 -1.000001 0.0 0.0 -49.019924 -8.894763 -15.830903 40.012375 0.149331 -0.092741 -71.560074 -3.745539 -2.102641 -11.052991 0.706416 1.579742 -1.0 0.0 -0.0 
0.0 0.0 0.0 0.0 -0.0 0.0 -3.554133 90.936485 206.907227 91.08168 -8.789324 93.094017 -0.1421 -0.291566 -0.676549 -10.520597 -0.368169 -1.343923 12.285609 1.498849 -2.975628 15.494025 -1.123671 2.705405 -2.547869 -0.912623 -1.424714 -43.78339 -2.195035 -1.017177 5e-06 -0.0 0.0 0.027976 -0.00765 -0.047506 0.21467 -0.038607 -0.056655 0.240374 0.020493 -0.035764 -105.285393 -79.860107 117.516121 48.756729 -44.32972 8.984527 32.562843 0.594564 0.295176 0.808197 -14.533907 26.314812 17.636633 -26.322733 52.411201 -19.466661 -14.395596 29.410389 -0.0 -8.774822 -2e-06 16.173634 -17.653263 5.864466 -0.609777 -1.795653 -3.889328 -4.80709 -11.046813 -2.93785 3e-06 -20.976021 0.0 -5.019972 -25.033562 -4.031881 6e-06 3e-06 0.0 -10.634535 -5.68697 -3.565588 10.573272 -17.922953 -3.113901 2e-06 -13.821211 1e-06 -0.501779 -31.181507 -4.027017 -11.536201 -60.137535 7.547844 -13.982713 -7.150198 -2.875043 13.772729 -8.401491 -3.218241 0.347731 -34.211555 0.771656 -0.963029 -17.733372 2.621019 0.0 -0.0 0.0 -17.346418 -20.095221 -4.201782 21.757557 -1.638373 3.866428 1e-06 -6.338825 1e-06 -1.697591 -22.591751 -6.194006 0.0 -3e-06 -3e-06 40.663967 -74.693947 154.507324 27.456606 -50.045071 1.058118 26.227703 -0.192044 -0.160748 -2.89541 -0.758716 31.066515 22.182116 -20.375895 49.933327 -16.701809 -16.74353 28.476532 -2e-06 -12.6906 -1e-06 16.676929 -17.624975 2.115058 -0.105919 -1.513856 -4.275882 -5.039041 -5.612871 -2.953559 2e-06 -11.020523 -1e-06 -6.111298 -15.895332 -3.840471 0.0 -0.0 1e-06 -10.283369 -5.680289 -4.341837 11.028293 -11.302403 -2.372636 -1.38427 -14.238579 -6.320124 -0.625441 -26.924187 -3.827599 -3.781781 -49.715542 -4.548879 -13.708526 -7.363479 -3.720937 18.141148 -14.052735 -3.242673 4e-06 -18.787268 -3e-06 -0.429713 -8.456045 2.555504 -0.0 1e-06 -3e-06 -15.923539 -20.094482 -5.473582 30.41921 -7.190823 1.735929 2e-06 -8.162926 -1e-06 -1.861905 -22.861467 -6.167945 0.0 -2e-06 -1e-06 171.305054 -0.003971 -1.468665 45.685104 -0.432775 0.398566 -102.656998 6.878126 1.28148 -16.136517 1.72691 2.01644 -1.0 -0.0 0.0 -49.325806 -8.289415 -15.027122 41.728489 0.046747 -0.115246 -71.575096 -5.025537 -1.13675 -10.566773 0.681728 1.549072 -1.000002 -0.0 -0.0 
0.0 0.0 0.0 0.0 -0.0 0.0 -4.156535 90.918312 208.797668 90.632599 -9.391232 93.489136 -0.288579 -0.070785 -0.655495 -10.593485 -0.303227 -1.403682 12.289443 1.80511 -2.977582 15.202844 -1.063647 2.596036 -2.535938 -1.018303 -1.220484 -44.326122 -2.365605 -1.306375 6e-06 0.0 0.0 0.038546 0.006844 -0.028747 0.241556 -0.011485 -0.029202 0.251292 0.023974 -0.024406 -105.069473 -79.847443 117.447792 48.698452 -44.5504 9.085569 32.588448 0.496423 0.254466 0.947878 -14.530591 25.960234 17.636627 -26.322735 52.41119 -19.466665 -14.3956 29.410395 -0.0 -8.774822 -2e-06 16.267128 -17.647972 5.782694 -0.609776 -1.795653 -3.889328 -4.80709 -11.046812 -2.93785 4e-06 -20.976019 0.0 -5.019973 -25.03356 -4.031879 6e-06 1e-06 0.0 -10.634535 -5.686971 -3.565587 10.573275 -17.922955 -3.113901 2e-06 -13.821211 1e-06 -0.501778 -31.181507 -4.027016 -11.518607 -60.007462 7.410373 -13.982715 -7.150198 -2.875041 13.772731 -8.401493 -3.218242 0.347731 -34.211555 0.771656 -0.963029 -17.733372 2.62102 -0.0 0.0 0.0 -17.34642 -20.095219 -4.201779 21.757559 -1.638374 3.866427 1e-06 -6.338824 1e-06 -1.69759 -22.591745 -6.194006 0.0 -1e-06 -2e-06 41.027966 -74.626968 154.104034 27.34087 -50.402863 1.048529 26.147512 -0.274583 -0.169748 -2.680064 -1.048062 30.928549 22.182106 -20.375887 49.933315 -16.701811 -16.74353 28.476528 -3e-06 -12.690601 0.0 16.578539 -17.51926 2.182833 -0.105919 -1.513856 -4.275882 -5.03904 -5.612871 -2.953554 3e-06 -11.020523 -1e-06 -6.1113 -15.895334 -3.840471 0.0 1e-06 1e-06 -10.283369 -5.680288 -4.341835 11.028292 -11.302404 -2.372636 -1.38427 -14.238581 -6.320123 -0.625443 -26.924192 -3.827598 -3.82255 -49.843536 -4.333862 -13.708525 -7.363476 -3.720937 18.14115 -14.052737 -3.242676 5e-06 -18.787268 -4e-06 -0.42971 -8.456042 2.555502 -0.0 -0.0 0.0 -15.923536 -20.094482 -5.473581 30.419207 -7.190824 1.735925 2e-06 -8.162924 -1e-06 -1.861899 -22.861467 -6.167945 1e-06 -2e-06 -1e-06 172.146576 -1.265797 -1.951008 45.362495 -0.520084 0.484834 -101.121063 7.763058 1.251231 -18.006241 1.877382 2.003406 -0.999999 -0.0 -0.0 -49.494926 -7.690306 -14.739994 43.474239 0.0741 -0.21694 -72.645203 -6.209723 -0.194714 -9.586876 0.73899 1.558597 -1.000002 0.0 -0.0 
